<mxfile host="app.diagrams.net" agent="Mozilla/5.0 (Windows NT 10.0; Win64; x64) AppleWebKit/537.36 (KHTML, like Gecko) Chrome/141.0.0.0 Safari/537.36" version="28.2.5">
  <diagram name="Page-1" id="Um-DkkvHRTAY0Bc2y4DT">
    <mxGraphModel dx="830" dy="1543" grid="1" gridSize="10" guides="1" tooltips="1" connect="1" arrows="1" fold="1" page="1" pageScale="1" pageWidth="850" pageHeight="1100" math="0" shadow="0">
      <root>
        <mxCell id="0" />
        <mxCell id="1" parent="0" />
        <mxCell id="cz-yWC7ljBLg4Ed2xgbd-1" value="&lt;b&gt;&lt;font style=&quot;font-size: 18px;&quot;&gt;World Population Reporting System&lt;/font&gt;&lt;/b&gt;" style="rounded=0;whiteSpace=wrap;html=1;verticalAlign=top;" parent="1" vertex="1">
          <mxGeometry x="100" y="-60" width="720" height="1180" as="geometry" />
        </mxCell>
        <mxCell id="cz-yWC7ljBLg4Ed2xgbd-2" value="Data Analyst" style="shape=umlActor;verticalLabelPosition=bottom;verticalAlign=top;html=1;" parent="1" vertex="1">
          <mxGeometry x="20" y="120" width="30" height="60" as="geometry" />
        </mxCell>
        <mxCell id="cz-yWC7ljBLg4Ed2xgbd-3" value="" style="line;strokeWidth=1;fillColor=none;align=left;verticalAlign=middle;spacingTop=-1;spacingLeft=3;spacingRight=3;rotatable=0;labelPosition=right;points=[];portConstraint=eastwest;strokeColor=inherit;" parent="1" vertex="1">
          <mxGeometry x="40" y="146" width="60" height="8" as="geometry" />
        </mxCell>
        <mxCell id="PmmtqNUKrxQG4VxilLYE-3" style="edgeStyle=orthogonalEdgeStyle;rounded=0;orthogonalLoop=1;jettySize=auto;html=1;exitX=1;exitY=0.5;exitDx=0;exitDy=0;" edge="1" parent="1" source="cz-yWC7ljBLg4Ed2xgbd-4" target="cz-yWC7ljBLg4Ed2xgbd-5">
          <mxGeometry relative="1" as="geometry" />
        </mxCell>
        <mxCell id="PmmtqNUKrxQG4VxilLYE-16" style="edgeStyle=orthogonalEdgeStyle;rounded=0;orthogonalLoop=1;jettySize=auto;html=1;exitX=1;exitY=0.5;exitDx=0;exitDy=0;" edge="1" parent="1" source="cz-yWC7ljBLg4Ed2xgbd-4" target="PmmtqNUKrxQG4VxilLYE-11">
          <mxGeometry relative="1" as="geometry" />
        </mxCell>
        <mxCell id="PmmtqNUKrxQG4VxilLYE-17" style="edgeStyle=orthogonalEdgeStyle;rounded=0;orthogonalLoop=1;jettySize=auto;html=1;exitX=1;exitY=0.5;exitDx=0;exitDy=0;entryX=0;entryY=0.5;entryDx=0;entryDy=0;" edge="1" parent="1" source="cz-yWC7ljBLg4Ed2xgbd-4" target="PmmtqNUKrxQG4VxilLYE-14">
          <mxGeometry relative="1" as="geometry" />
        </mxCell>
        <mxCell id="cz-yWC7ljBLg4Ed2xgbd-4" value="View Countries by Population" style="ellipse;whiteSpace=wrap;html=1;" parent="1" vertex="1">
          <mxGeometry x="140" y="50" width="140" height="70" as="geometry" />
        </mxCell>
        <mxCell id="PmmtqNUKrxQG4VxilLYE-10" style="edgeStyle=orthogonalEdgeStyle;rounded=0;orthogonalLoop=1;jettySize=auto;html=1;exitX=1;exitY=0.5;exitDx=0;exitDy=0;" edge="1" parent="1" source="cz-yWC7ljBLg4Ed2xgbd-5" target="PmmtqNUKrxQG4VxilLYE-9">
          <mxGeometry relative="1" as="geometry" />
        </mxCell>
        <mxCell id="cz-yWC7ljBLg4Ed2xgbd-5" value="World Poulation" style="ellipse;whiteSpace=wrap;html=1;" parent="1" vertex="1">
          <mxGeometry x="360" width="140" height="70" as="geometry" />
        </mxCell>
        <mxCell id="PmmtqNUKrxQG4VxilLYE-56" style="edgeStyle=orthogonalEdgeStyle;rounded=0;orthogonalLoop=1;jettySize=auto;html=1;exitX=1;exitY=0.5;exitDx=0;exitDy=0;" edge="1" parent="1" source="cz-yWC7ljBLg4Ed2xgbd-10" target="PmmtqNUKrxQG4VxilLYE-51">
          <mxGeometry relative="1" as="geometry" />
        </mxCell>
        <mxCell id="PmmtqNUKrxQG4VxilLYE-57" style="edgeStyle=orthogonalEdgeStyle;rounded=0;orthogonalLoop=1;jettySize=auto;html=1;exitX=0.5;exitY=1;exitDx=0;exitDy=0;" edge="1" parent="1" source="cz-yWC7ljBLg4Ed2xgbd-10" target="PmmtqNUKrxQG4VxilLYE-52">
          <mxGeometry relative="1" as="geometry" />
        </mxCell>
        <mxCell id="PmmtqNUKrxQG4VxilLYE-58" style="edgeStyle=orthogonalEdgeStyle;rounded=0;orthogonalLoop=1;jettySize=auto;html=1;exitX=1;exitY=1;exitDx=0;exitDy=0;entryX=0;entryY=0.5;entryDx=0;entryDy=0;" edge="1" parent="1" source="cz-yWC7ljBLg4Ed2xgbd-10" target="PmmtqNUKrxQG4VxilLYE-53">
          <mxGeometry relative="1" as="geometry" />
        </mxCell>
        <mxCell id="PmmtqNUKrxQG4VxilLYE-60" style="edgeStyle=orthogonalEdgeStyle;rounded=0;orthogonalLoop=1;jettySize=auto;html=1;exitX=1;exitY=1;exitDx=0;exitDy=0;" edge="1" parent="1" source="cz-yWC7ljBLg4Ed2xgbd-10" target="PmmtqNUKrxQG4VxilLYE-54">
          <mxGeometry relative="1" as="geometry" />
        </mxCell>
        <mxCell id="PmmtqNUKrxQG4VxilLYE-61" style="edgeStyle=orthogonalEdgeStyle;rounded=0;orthogonalLoop=1;jettySize=auto;html=1;exitX=1;exitY=1;exitDx=0;exitDy=0;" edge="1" parent="1" source="cz-yWC7ljBLg4Ed2xgbd-10" target="PmmtqNUKrxQG4VxilLYE-55">
          <mxGeometry relative="1" as="geometry">
            <Array as="points">
              <mxPoint x="440" y="870" />
              <mxPoint x="440" y="1035" />
            </Array>
          </mxGeometry>
        </mxCell>
        <mxCell id="cz-yWC7ljBLg4Ed2xgbd-10" value="View language statistics" style="ellipse;whiteSpace=wrap;html=1;" parent="1" vertex="1">
          <mxGeometry x="130" y="810" width="140" height="70" as="geometry" />
        </mxCell>
        <mxCell id="PmmtqNUKrxQG4VxilLYE-9" value="Top N Country" style="ellipse;whiteSpace=wrap;html=1;" vertex="1" parent="1">
          <mxGeometry x="650" width="140" height="70" as="geometry" />
        </mxCell>
        <mxCell id="PmmtqNUKrxQG4VxilLYE-18" style="edgeStyle=orthogonalEdgeStyle;rounded=0;orthogonalLoop=1;jettySize=auto;html=1;exitX=1;exitY=0.5;exitDx=0;exitDy=0;" edge="1" parent="1" source="PmmtqNUKrxQG4VxilLYE-11" target="PmmtqNUKrxQG4VxilLYE-13">
          <mxGeometry relative="1" as="geometry" />
        </mxCell>
        <mxCell id="PmmtqNUKrxQG4VxilLYE-11" value="Country Population by Continent" style="ellipse;whiteSpace=wrap;html=1;" vertex="1" parent="1">
          <mxGeometry x="360" y="76" width="140" height="70" as="geometry" />
        </mxCell>
        <mxCell id="PmmtqNUKrxQG4VxilLYE-13" value="Top N Continent" style="ellipse;whiteSpace=wrap;html=1;" vertex="1" parent="1">
          <mxGeometry x="650" y="76" width="140" height="70" as="geometry" />
        </mxCell>
        <mxCell id="PmmtqNUKrxQG4VxilLYE-19" style="edgeStyle=orthogonalEdgeStyle;rounded=0;orthogonalLoop=1;jettySize=auto;html=1;exitX=1;exitY=0.5;exitDx=0;exitDy=0;" edge="1" parent="1" source="PmmtqNUKrxQG4VxilLYE-14" target="PmmtqNUKrxQG4VxilLYE-15">
          <mxGeometry relative="1" as="geometry" />
        </mxCell>
        <mxCell id="PmmtqNUKrxQG4VxilLYE-14" value="Country Population by Region" style="ellipse;whiteSpace=wrap;html=1;" vertex="1" parent="1">
          <mxGeometry x="360" y="154" width="140" height="70" as="geometry" />
        </mxCell>
        <mxCell id="PmmtqNUKrxQG4VxilLYE-15" value="Top N Region" style="ellipse;whiteSpace=wrap;html=1;" vertex="1" parent="1">
          <mxGeometry x="650" y="154" width="140" height="70" as="geometry" />
        </mxCell>
        <mxCell id="PmmtqNUKrxQG4VxilLYE-29" style="edgeStyle=orthogonalEdgeStyle;rounded=0;orthogonalLoop=1;jettySize=auto;html=1;exitX=1;exitY=0.5;exitDx=0;exitDy=0;entryX=0;entryY=0.5;entryDx=0;entryDy=0;" edge="1" parent="1" source="PmmtqNUKrxQG4VxilLYE-20" target="PmmtqNUKrxQG4VxilLYE-21">
          <mxGeometry relative="1" as="geometry" />
        </mxCell>
        <mxCell id="PmmtqNUKrxQG4VxilLYE-30" style="edgeStyle=orthogonalEdgeStyle;rounded=0;orthogonalLoop=1;jettySize=auto;html=1;exitX=1;exitY=0.5;exitDx=0;exitDy=0;entryX=0;entryY=0.5;entryDx=0;entryDy=0;" edge="1" parent="1" source="PmmtqNUKrxQG4VxilLYE-20" target="PmmtqNUKrxQG4VxilLYE-23">
          <mxGeometry relative="1" as="geometry" />
        </mxCell>
        <mxCell id="PmmtqNUKrxQG4VxilLYE-31" style="edgeStyle=orthogonalEdgeStyle;rounded=0;orthogonalLoop=1;jettySize=auto;html=1;exitX=1;exitY=0.5;exitDx=0;exitDy=0;entryX=0;entryY=0.5;entryDx=0;entryDy=0;" edge="1" parent="1" source="PmmtqNUKrxQG4VxilLYE-20" target="PmmtqNUKrxQG4VxilLYE-24">
          <mxGeometry relative="1" as="geometry" />
        </mxCell>
        <mxCell id="PmmtqNUKrxQG4VxilLYE-33" style="edgeStyle=orthogonalEdgeStyle;rounded=0;orthogonalLoop=1;jettySize=auto;html=1;exitX=1;exitY=0.5;exitDx=0;exitDy=0;entryX=0;entryY=0.5;entryDx=0;entryDy=0;" edge="1" parent="1" source="PmmtqNUKrxQG4VxilLYE-20" target="PmmtqNUKrxQG4VxilLYE-25">
          <mxGeometry relative="1" as="geometry" />
        </mxCell>
        <mxCell id="PmmtqNUKrxQG4VxilLYE-20" value="View Cities by Population" style="ellipse;whiteSpace=wrap;html=1;" vertex="1" parent="1">
          <mxGeometry x="140" y="250" width="140" height="70" as="geometry" />
        </mxCell>
        <mxCell id="PmmtqNUKrxQG4VxilLYE-34" style="edgeStyle=orthogonalEdgeStyle;rounded=0;orthogonalLoop=1;jettySize=auto;html=1;exitX=1;exitY=0.5;exitDx=0;exitDy=0;entryX=0;entryY=0.5;entryDx=0;entryDy=0;" edge="1" parent="1" source="PmmtqNUKrxQG4VxilLYE-21" target="PmmtqNUKrxQG4VxilLYE-22">
          <mxGeometry relative="1" as="geometry" />
        </mxCell>
        <mxCell id="PmmtqNUKrxQG4VxilLYE-21" value="City World Population" style="ellipse;whiteSpace=wrap;html=1;" vertex="1" parent="1">
          <mxGeometry x="355" y="250" width="140" height="70" as="geometry" />
        </mxCell>
        <mxCell id="PmmtqNUKrxQG4VxilLYE-22" value="Top N City" style="ellipse;whiteSpace=wrap;html=1;" vertex="1" parent="1">
          <mxGeometry x="650" y="250" width="140" height="70" as="geometry" />
        </mxCell>
        <mxCell id="PmmtqNUKrxQG4VxilLYE-35" style="edgeStyle=orthogonalEdgeStyle;rounded=0;orthogonalLoop=1;jettySize=auto;html=1;exitX=1;exitY=0.5;exitDx=0;exitDy=0;" edge="1" parent="1" source="PmmtqNUKrxQG4VxilLYE-23" target="PmmtqNUKrxQG4VxilLYE-26">
          <mxGeometry relative="1" as="geometry" />
        </mxCell>
        <mxCell id="PmmtqNUKrxQG4VxilLYE-23" value="City Population by Continent&amp;nbsp;" style="ellipse;whiteSpace=wrap;html=1;" vertex="1" parent="1">
          <mxGeometry x="355" y="330" width="140" height="70" as="geometry" />
        </mxCell>
        <mxCell id="PmmtqNUKrxQG4VxilLYE-36" style="edgeStyle=orthogonalEdgeStyle;rounded=0;orthogonalLoop=1;jettySize=auto;html=1;exitX=1;exitY=0.5;exitDx=0;exitDy=0;" edge="1" parent="1" source="PmmtqNUKrxQG4VxilLYE-24" target="PmmtqNUKrxQG4VxilLYE-27">
          <mxGeometry relative="1" as="geometry" />
        </mxCell>
        <mxCell id="PmmtqNUKrxQG4VxilLYE-24" value="City Population by Region&amp;nbsp;" style="ellipse;whiteSpace=wrap;html=1;" vertex="1" parent="1">
          <mxGeometry x="355" y="410" width="140" height="70" as="geometry" />
        </mxCell>
        <mxCell id="PmmtqNUKrxQG4VxilLYE-37" style="edgeStyle=orthogonalEdgeStyle;rounded=0;orthogonalLoop=1;jettySize=auto;html=1;exitX=1;exitY=0.5;exitDx=0;exitDy=0;entryX=0;entryY=0.5;entryDx=0;entryDy=0;" edge="1" parent="1" source="PmmtqNUKrxQG4VxilLYE-25" target="PmmtqNUKrxQG4VxilLYE-28">
          <mxGeometry relative="1" as="geometry" />
        </mxCell>
        <mxCell id="PmmtqNUKrxQG4VxilLYE-25" value="City Population by District&amp;nbsp;" style="ellipse;whiteSpace=wrap;html=1;" vertex="1" parent="1">
          <mxGeometry x="355" y="490" width="140" height="70" as="geometry" />
        </mxCell>
        <mxCell id="PmmtqNUKrxQG4VxilLYE-26" value="Top N Continent" style="ellipse;whiteSpace=wrap;html=1;" vertex="1" parent="1">
          <mxGeometry x="650" y="330" width="140" height="70" as="geometry" />
        </mxCell>
        <mxCell id="PmmtqNUKrxQG4VxilLYE-27" value="Top N Region" style="ellipse;whiteSpace=wrap;html=1;" vertex="1" parent="1">
          <mxGeometry x="650" y="410" width="140" height="70" as="geometry" />
        </mxCell>
        <mxCell id="PmmtqNUKrxQG4VxilLYE-28" value="Top N District" style="ellipse;whiteSpace=wrap;html=1;" vertex="1" parent="1">
          <mxGeometry x="650" y="490" width="140" height="70" as="geometry" />
        </mxCell>
        <mxCell id="PmmtqNUKrxQG4VxilLYE-45" style="edgeStyle=orthogonalEdgeStyle;rounded=0;orthogonalLoop=1;jettySize=auto;html=1;exitX=1;exitY=0.5;exitDx=0;exitDy=0;entryX=0;entryY=0.5;entryDx=0;entryDy=0;" edge="1" parent="1" source="PmmtqNUKrxQG4VxilLYE-38" target="PmmtqNUKrxQG4VxilLYE-39">
          <mxGeometry relative="1" as="geometry" />
        </mxCell>
        <mxCell id="PmmtqNUKrxQG4VxilLYE-46" style="edgeStyle=orthogonalEdgeStyle;rounded=0;orthogonalLoop=1;jettySize=auto;html=1;exitX=1;exitY=0.5;exitDx=0;exitDy=0;entryX=0;entryY=0.5;entryDx=0;entryDy=0;" edge="1" parent="1" source="PmmtqNUKrxQG4VxilLYE-38" target="PmmtqNUKrxQG4VxilLYE-41">
          <mxGeometry relative="1" as="geometry" />
        </mxCell>
        <mxCell id="PmmtqNUKrxQG4VxilLYE-47" style="edgeStyle=orthogonalEdgeStyle;rounded=0;orthogonalLoop=1;jettySize=auto;html=1;exitX=1;exitY=0.5;exitDx=0;exitDy=0;entryX=0;entryY=0.5;entryDx=0;entryDy=0;" edge="1" parent="1" source="PmmtqNUKrxQG4VxilLYE-38" target="PmmtqNUKrxQG4VxilLYE-42">
          <mxGeometry relative="1" as="geometry" />
        </mxCell>
        <mxCell id="PmmtqNUKrxQG4VxilLYE-38" value="Capital Cities Population" style="ellipse;whiteSpace=wrap;html=1;" vertex="1" parent="1">
          <mxGeometry x="130" y="580" width="140" height="70" as="geometry" />
        </mxCell>
        <mxCell id="PmmtqNUKrxQG4VxilLYE-48" style="edgeStyle=orthogonalEdgeStyle;rounded=0;orthogonalLoop=1;jettySize=auto;html=1;exitX=1;exitY=0.5;exitDx=0;exitDy=0;" edge="1" parent="1" source="PmmtqNUKrxQG4VxilLYE-39" target="PmmtqNUKrxQG4VxilLYE-40">
          <mxGeometry relative="1" as="geometry" />
        </mxCell>
        <mxCell id="PmmtqNUKrxQG4VxilLYE-39" value="Capital Cities by World Population" style="ellipse;whiteSpace=wrap;html=1;" vertex="1" parent="1">
          <mxGeometry x="350" y="580" width="140" height="70" as="geometry" />
        </mxCell>
        <mxCell id="PmmtqNUKrxQG4VxilLYE-40" value="Top N Capital City" style="ellipse;whiteSpace=wrap;html=1;" vertex="1" parent="1">
          <mxGeometry x="650" y="580" width="140" height="70" as="geometry" />
        </mxCell>
        <mxCell id="PmmtqNUKrxQG4VxilLYE-49" style="edgeStyle=orthogonalEdgeStyle;rounded=0;orthogonalLoop=1;jettySize=auto;html=1;exitX=1;exitY=0.5;exitDx=0;exitDy=0;" edge="1" parent="1" source="PmmtqNUKrxQG4VxilLYE-41" target="PmmtqNUKrxQG4VxilLYE-43">
          <mxGeometry relative="1" as="geometry" />
        </mxCell>
        <mxCell id="PmmtqNUKrxQG4VxilLYE-41" value="Capital Cities Population by Continent" style="ellipse;whiteSpace=wrap;html=1;" vertex="1" parent="1">
          <mxGeometry x="350" y="660" width="140" height="70" as="geometry" />
        </mxCell>
        <mxCell id="PmmtqNUKrxQG4VxilLYE-50" style="edgeStyle=orthogonalEdgeStyle;rounded=0;orthogonalLoop=1;jettySize=auto;html=1;exitX=1;exitY=0.5;exitDx=0;exitDy=0;" edge="1" parent="1" source="PmmtqNUKrxQG4VxilLYE-42" target="PmmtqNUKrxQG4VxilLYE-44">
          <mxGeometry relative="1" as="geometry" />
        </mxCell>
        <mxCell id="PmmtqNUKrxQG4VxilLYE-42" value="Capital Cities Population by Region" style="ellipse;whiteSpace=wrap;html=1;" vertex="1" parent="1">
          <mxGeometry x="350" y="740" width="140" height="70" as="geometry" />
        </mxCell>
        <mxCell id="PmmtqNUKrxQG4VxilLYE-43" value="Top N Continent" style="ellipse;whiteSpace=wrap;html=1;" vertex="1" parent="1">
          <mxGeometry x="650" y="660" width="140" height="70" as="geometry" />
        </mxCell>
        <mxCell id="PmmtqNUKrxQG4VxilLYE-44" value="Top N Region" style="ellipse;whiteSpace=wrap;html=1;" vertex="1" parent="1">
          <mxGeometry x="650" y="740" width="140" height="70" as="geometry" />
        </mxCell>
        <mxCell id="PmmtqNUKrxQG4VxilLYE-51" value="Chinese Language Report" style="ellipse;whiteSpace=wrap;html=1;" vertex="1" parent="1">
          <mxGeometry x="640" y="840" width="140" height="70" as="geometry" />
        </mxCell>
        <mxCell id="PmmtqNUKrxQG4VxilLYE-52" value="English Language Report" style="ellipse;whiteSpace=wrap;html=1;" vertex="1" parent="1">
          <mxGeometry x="120" y="1000" width="140" height="70" as="geometry" />
        </mxCell>
        <mxCell id="PmmtqNUKrxQG4VxilLYE-53" value="Hindi Language Report" style="ellipse;whiteSpace=wrap;html=1;" vertex="1" parent="1">
          <mxGeometry x="640" y="930" width="140" height="70" as="geometry" />
        </mxCell>
        <mxCell id="PmmtqNUKrxQG4VxilLYE-54" value="Spanish Language Report" style="ellipse;whiteSpace=wrap;html=1;" vertex="1" parent="1">
          <mxGeometry x="280" y="1000" width="140" height="70" as="geometry" />
        </mxCell>
        <mxCell id="PmmtqNUKrxQG4VxilLYE-55" value="Arabic Language Report" style="ellipse;whiteSpace=wrap;html=1;" vertex="1" parent="1">
          <mxGeometry x="480" y="1000" width="140" height="70" as="geometry" />
        </mxCell>
      </root>
    </mxGraphModel>
  </diagram>
</mxfile>
